<svg width="164" height="165" viewBox="0 0 164 165" fill="none" xmlns="http://www.w3.org/2000/svg">
<path d="M160.418 82.4587C160.418 126.368 125.153 161.917 81.7091 161.917C38.265 161.917 3 126.368 3 82.4587C3 38.549 38.265 3 81.7091 3C125.153 3 160.418 38.549 160.418 82.4587Z" stroke="black" stroke-width="6"/>
<path d="M128 32L18 85.7642L46.7983 103.686M128 32L102 120.5L81.5 115L64 108M128 32L46.7983 103.686M128 32L64 108M64 108L61.9056 140M61.9056 140L46.7983 103.686M61.9056 140L81.5 117" stroke="black" stroke-width="6" stroke-linejoin="round"/>
</svg>
